<svg width="800" height="400" viewBox="0 0 800 400" xmlns="http://www.w3.org/2000/svg">
  <rect width="800" height="400" fill="#1e40af"/>
  <g fill="#ffffff" opacity="0.05">
    <circle cx="100" cy="100" r="80"/>
    <circle cx="700" cy="300" r="90"/>
    <circle cx="400" cy="50" r="40"/>
    <circle cx="200" cy="300" r="60"/>
    <circle cx="600" cy="150" r="70"/>
    <circle cx="300" cy="200" r="50"/>
  </g>
  <!-- Stylized city skyline -->
  <g fill="#ffffff" opacity="0.2">
    <rect x="50" y="170" width="40" height="230"/>
    <rect x="110" y="250" width="30" height="150"/>
    <rect x="160" y="200" width="50" height="200"/>
    <rect x="230" y="150" width="40" height="250"/>
    <rect x="290" y="220" width="30" height="180"/>
    <rect x="340" y="180" width="60" height="220"/>
    <rect x="420" y="120" width="40" height="280"/>
    <rect x="480" y="200" width="35" height="200"/>
    <rect x="535" y="150" width="45" height="250"/>
    <rect x="600" y="220" width="30" height="180"/>
    <rect x="650" y="180" width="25" height="220"/>
    <rect x="695" y="250" width="40" height="150"/>
  </g>
  <!-- Windows -->
  <g fill="#ffffff" opacity="0.3">
    <rect x="55" y="180" width="10" height="10"/>
    <rect x="75" y="180" width="10" height="10"/>
    <rect x="55" y="200" width="10" height="10"/>
    <rect x="75" y="200" width="10" height="10"/>
    <rect x="55" y="220" width="10" height="10"/>
    <rect x="75" y="220" width="10" height="10"/>
    <!-- More windows on other buildings -->
    <rect x="165" y="210" width="10" height="10"/>
    <rect x="185" y="210" width="10" height="10"/>
    <rect x="165" y="230" width="10" height="10"/>
    <rect x="185" y="230" width="10" height="10"/>
    
    <rect x="345" y="190" width="10" height="10"/>
    <rect x="365" y="190" width="10" height="10"/>
    <rect x="345" y="210" width="10" height="10"/>
    <rect x="365" y="210" width="10" height="10"/>
    
    <rect x="425" y="130" width="10" height="10"/>
    <rect x="445" y="130" width="10" height="10"/>
    <rect x="425" y="150" width="10" height="10"/>
    <rect x="445" y="150" width="10" height="10"/>
    
    <rect x="540" y="160" width="10" height="10"/>
    <rect x="560" y="160" width="10" height="10"/>
    <rect x="540" y="180" width="10" height="10"/>
    <rect x="560" y="180" width="10" height="10"/>
  </g>
  <!-- Moldova Insight Realty text -->
  <text x="400" y="80" font-family="Arial" font-size="24" fill="#ffffff" text-anchor="middle" font-weight="bold">Moldova Insight Realty</text>
</svg>
